<?xml version="1.0" encoding="UTF-8" standalone="no"?>
<svg
   xmlns:dc="http://purl.org/dc/elements/1.1/"
   xmlns:cc="http://creativecommons.org/ns#"
   xmlns:rdf="http://www.w3.org/1999/02/22-rdf-syntax-ns#"
   xmlns:svg="http://www.w3.org/2000/svg"
   xmlns="http://www.w3.org/2000/svg"
   xmlns:xlink="http://www.w3.org/1999/xlink"
   xmlns:sodipodi="http://sodipodi.sourceforge.net/DTD/sodipodi-0.dtd"
   xmlns:inkscape="http://www.inkscape.org/namespaces/inkscape"
   enable-background="new -27 24 100 100"
   id="unknown"
   version="1.1"
   viewBox="-27 24 100 100"
   xml:space="preserve"
   inkscape:version="0.91 r13725"
   sodipodi:docname="default.svg"><metadata
     id="metadata25"><rdf:RDF><cc:Work
         rdf:about=""><dc:format>image/svg+xml</dc:format><dc:type
           rdf:resource="http://purl.org/dc/dcmitype/StillImage" /></cc:Work></rdf:RDF></metadata><defs
     id="defs23"><defs
       id="defs11"><path
         d="m 36,95.9 c 0,4 4.7,5.2 7.1,5.8 7.6,2 22.8,5.9 22.8,5.9 3.2,1.1 5.7,3.5 7.1,6.6 l 0,9.8 -100,0 0,-9.8 c 1.3,-3.1 3.9,-5.5 7.1,-6.6 0,0 15.2,-3.9 22.8,-5.9 2.4,-0.6 7.1,-1.8 7.1,-5.8 0,-4 0,-10.9 0,-10.9 l 26,0 c 0,0 0,6.9 0,10.9 z"
         id="shoulders"
         inkscape:connector-curvature="0" /></defs><clipPath
       id="shoulders_1_"><use
         overflow="visible"
         xlink:href="#shoulders"
         id="use17"
         style="overflow:visible"
         x="0"
         y="0"
         width="100%"
         height="100%" /></clipPath><filter
       style="color-interpolation-filters:sRGB;"
       inkscape:label="Fade to Black or White"
       id="filter4515"><feColorMatrix
         values="0.820856 0 0 0 0 0 0.820856 0 0 0 0 0 0.820856 0 0 0 0 0 1 0"
         id="feColorMatrix4517" /></filter><filter
       style="color-interpolation-filters:sRGB;"
       inkscape:label="Fade to Black or White"
       id="filter4519"><feColorMatrix
         values="0.820856 0 0 0 0 0 0.820856 0 0 0 0 0 0.820856 0 0 0 0 0 1 0"
         id="feColorMatrix4521" /></filter><filter
       style="color-interpolation-filters:sRGB;"
       inkscape:label="Fade to Black or White"
       id="filter4523"><feColorMatrix
         values="0.820856 0 0 0 0 0 0.820856 0 0 0 0 0 0.820856 0 0 0 0 0 1 0"
         id="feColorMatrix4525" /></filter></defs><sodipodi:namedview
     pagecolor="#ffffff"
     bordercolor="#666666"
     borderopacity="1"
     objecttolerance="10"
     gridtolerance="10"
     guidetolerance="10"
     inkscape:pageopacity="0"
     inkscape:pageshadow="2"
     inkscape:window-width="1920"
     inkscape:window-height="1032"
     id="namedview21"
     showgrid="false"
     inkscape:zoom="4.72"
     inkscape:cx="15.889011"
     inkscape:cy="47.214051"
     inkscape:window-x="0"
     inkscape:window-y="24"
     inkscape:window-maximized="1"
     inkscape:current-layer="g3" /><g
     id="g3"><rect
       style="fill:#ecf0f5;fill-opacity:1"
       id="rect7"
       y="24"
       x="-27"
       width="100"
       height="100" /><use
       overflow="visible"
       xlink:href="#shoulders"
       id="use14"
       style="overflow:visible;fill:#e6c19c;filter:url(#filter4515)"
       x="0"
       y="0"
       width="100%"
       height="100%" /><path
       clip-path="url(#shoulders_1_)"
       d="m 23.2,35 c 0.1,0 0.1,0 0.2,0 0,0 0,0 0,0 3.3,0 8.2,0.2 11.4,2 3.3,1.9 7.3,5.6 8.5,12.1 2.4,13.7 -2.1,35.4 -6.3,42.4 -4,6.7 -9.8,9.2 -13.5,9.4 0,0 -0.1,0 -0.1,0 -0.1,0 -0.1,0 -0.2,0 -0.1,0 -0.1,0 -0.2,0 0,0 -0.1,0 -0.1,0 C 19.2,100.7 13.4,98.2 9.4,91.5 5.2,84.5 0.7,62.8 3.1,49.1 4.3,42.6 8.3,38.9 11.6,37 c 3.2,-1.8 8.1,-2 11.4,-2 0,0 0,0 0,0 0.1,0 0.1,0 0.2,0 l 0,0 z"
       id="head-shadow"
       inkscape:connector-curvature="0"
       style="fill:#d4b08c;filter:url(#filter4519)" /><path
       d="M22.6,40c19.1,0,20.7,13.8,20.8,15.1c1.1,11.9-3,28.1-6.8,33.7c-4,5.9-9.8,8.1-13.5,8.3    c-0.2,0-0.2,0-0.3,0c-0.1,0-0.1,0-0.2,0C18.8,96.8,13,94.6,9,88.7c-3.8-5.6-7.9-21.8-6.8-33.8C2.3,53.7,3.5,40,22.6,40z"
       fill="#F2CEA5"
       id="head"
       style="filter:url(#filter4523)" /></g></svg>